<svg width="1200" height="760" viewBox="0 0 1200 760" fill="none" xmlns="http://www.w3.org/2000/svg">
  <rect width="1200" height="760" rx="30" fill="#111815"/>
  <rect x="44" y="44" width="1112" height="672" rx="24" fill="url(#bg)"/>

  <rect x="86" y="92" width="420" height="576" rx="24" fill="#141D18" stroke="#2A362F"/>
  <text x="122" y="145" fill="#FF9C3D" font-family="Arial" font-size="28" font-weight="700">CHECKLIST LAND ROVER</text>
  <text x="122" y="194" fill="#EEF5F1" font-family="Arial" font-size="40" font-weight="700">Revisión preventiva</text>
  <text x="122" y="235" fill="#EEF5F1" font-family="Arial" font-size="40" font-weight="700">antes de viaje</text>

  <g fill="#AEB9B3" font-family="Arial" font-size="22">
    <text x="122" y="295">• Motor y fluidos</text>
    <text x="122" y="340">• Refrigeración y mangueras</text>
    <text x="122" y="385">• Frenos y dirección</text>
    <text x="122" y="430">• Suspensión</text>
    <text x="122" y="475">• Batería y carga</text>
    <text x="122" y="520">• Sistema eléctrico</text>
    <text x="122" y="565">• Llantas y repuesto</text>
    <text x="122" y="610">• Fugas e inspección general</text>
  </g>

  <ellipse cx="853" cy="562" rx="190" ry="36" fill="#000" fill-opacity="0.32"/>
  <path d="M585 533L655 440C677 412 711 396 747 396H960C1018 396 1069 434 1084 490L1105 549H1174V621H1112C1104 577 1068 544 1023 544C977 544 941 577 933 621H740C732 577 695 544 649 544C603 544 567 577 559 621H522V572C522 556 530 542 585 533Z" fill="#90B06D"/>
  <circle cx="649" cy="621" r="54" fill="#171C19"/>
  <circle cx="1023" cy="621" r="54" fill="#171C19"/>
  <circle cx="649" cy="621" r="28" fill="#D9E0DB"/>
  <circle cx="1023" cy="621" r="28" fill="#D9E0DB"/>
  <rect x="748" y="446" width="163" height="78" rx="12" fill="#28342D"/>
  <rect x="924" y="446" width="110" height="72" rx="12" fill="#28342D"/>
  <path d="M603 520C760 468 914 456 1119 489" stroke="#FF9C3D" stroke-width="4" stroke-linecap="round"/>

  <defs>
    <linearGradient id="bg" x1="600" y1="44" x2="600" y2="716" gradientUnits="userSpaceOnUse">
      <stop stop-color="#1A251F"/>
      <stop offset="1" stop-color="#0D1411"/>
    </linearGradient>
  </defs>
</svg>
