<svg width="1600" height="1000" viewBox="0 0 1600 1000" fill="none" xmlns="http://www.w3.org/2000/svg">
  <rect width="1600" height="1000" fill="#0D1411"/>
  <rect width="1600" height="1000" fill="url(#bg)"/>
  <ellipse cx="920" cy="790" rx="350" ry="70" fill="#000" fill-opacity="0.35"/>

  <path d="M295 603L409 440C438 397 487 372 539 372H922C1006 372 1079 427 1100 506L1133 603H1236C1294 603 1342 649 1349 707L1357 777H1246C1238 723 1194 682 1137 682C1080 682 1035 723 1027 777H665C657 723 612 682 555 682C497 682 453 723 445 777H297L287 685C282 645 264 621 295 603Z" fill="#7C9764"/>
  <circle cx="555" cy="682" r="72" fill="#151B18"/>
  <circle cx="1137" cy="682" r="72" fill="#151B18"/>
  <circle cx="555" cy="682" r="38" fill="#D7DED9"/>
  <circle cx="1137" cy="682" r="38" fill="#D7DED9"/>

  <rect x="586" y="440" width="255" height="110" rx="14" fill="#243129"/>
  <rect x="861" y="440" width="175" height="100" rx="14" fill="#243129"/>
  <path d="M343 585C610 492 887 468 1211 521" stroke="#FF9C3D" stroke-width="5" stroke-linecap="round" stroke-opacity="0.8"/>

  <rect x="113" y="118" width="400" height="180" rx="22" fill="#101714" fill-opacity="0.82" stroke="#2B3A31"/>
  <text x="143" y="168" fill="#FF9C3D" font-family="Arial" font-size="24" font-weight="700">LAND ROVER SPECIALIST</text>
  <text x="143" y="216" fill="#EEF5F1" font-family="Arial" font-size="42" font-weight="700">Taller premium</text>
  <text x="143" y="258" fill="#EEF5F1" font-family="Arial" font-size="42" font-weight="700">para clásicos</text>
  <text x="143" y="301" fill="#AEB9B3" font-family="Arial" font-size="22">Diagnóstico, restauración y reparación</text>

  <defs>
    <linearGradient id="bg" x1="800" y1="0" x2="800" y2="1000" gradientUnits="userSpaceOnUse">
      <stop stop-color="#1A251F"/>
      <stop offset="1" stop-color="#0B110E"/>
    </linearGradient>
  </defs>
</svg>
